<svg data-name="icon-line" xmlns="http://www.w3.org/2000/svg" viewBox="0 0 39.99 36.99"><defs><style>.cls-1{fill:#fff;}</style></defs><path class="cls-1" d="M298.07,402.29c-12,0-20.09,6.1-20.09,15.59,0,5.84,2.43,10.51,7.12,13.52.31.2.68.23.54.81-.56,2.34-1.53,6.5-1.53,6.5a.49.49,0,0,0,.17.48.47.47,0,0,0,.5,0s6.86-4.06,7.77-4.57a10.5,10.5,0,0,1,5.36-1.46c9.49,0,20.06-3.79,20.06-15.41C318,408.76,310.7,402.29,298.07,402.29ZM288.68,421a2.39,2.39,0,1,1,2.38-2.38A2.39,2.39,0,0,1,288.68,421Zm9.3,0a2.39,2.39,0,1,1,2.38-2.38A2.39,2.39,0,0,1,298,421Zm9.3,0a2.39,2.39,0,1,1,2.38-2.38A2.39,2.39,0,0,1,307.28,421Z" transform="translate(-277.98 -402.29)"/></svg>