<svg data-name="icon-mail" xmlns="http://www.w3.org/2000/svg" viewBox="0 0 38 30"><defs><style>.cls-1{fill:#fff;}</style></defs><path class="cls-1" d="M317.11,410.06a5,5,0,0,0-1.05-2.21c-.11-.13-.22-.25-.34-.37a5,5,0,0,0-3.56-1.48H283.84a5,5,0,0,0-3.56,1.48c-.12.12-.23.24-.35.38a4.89,4.89,0,0,0-1,2.21,4.46,4.46,0,0,0-.1,1V431a5,5,0,0,0,.42,2,5.08,5.08,0,0,0,1.06,1.56c.11.11.22.22.34.32a5.07,5.07,0,0,0,3.22,1.16h28.32a5,5,0,0,0,3.22-1.17l.34-.31a4.86,4.86,0,0,0,1-1.49l0-.08a5,5,0,0,0,.41-2v-19.9A5.52,5.52,0,0,0,317.11,410.06Zm-35.7-.84a2.47,2.47,0,0,1,.28-.33,3,3,0,0,1,2.15-.89h28.32a3,3,0,0,1,2.15.89,2.69,2.69,0,0,1,.27.32l.22.29-15.11,13.19a2.58,2.58,0,0,1-3.38,0l-15.1-13.18Zm-.6,21.9a.91.91,0,0,1,0-.17V411.46l11.72,10.24-11.61,10.13Zm32.86,2.48a3.07,3.07,0,0,1-1.51.4H283.84a3.07,3.07,0,0,1-1.51-.4l-.47-.28,12-10.46,1.32,1.14a4.29,4.29,0,0,0,5.67,0l1.31-1.14,12,10.46ZM315.2,431a.91.91,0,0,1,0,.17l-.1.71L303.48,421.7l11.72-10.24Z" transform="translate(-278.8 -406)"/></svg>